<?xml version="1.0" standalone="no"?>
<svg version="1.0" xmlns="http://www.w3.org/2000/svg"
 viewBox="700 125 325 735"
 preserveAspectRatio="xMidYMid meet">

<g transform="translate(0.000000,926.000000) scale(0.100000,-0.100000)"
fill="#3D4A31" stroke="none">
<path d="M8480 6699 l0 -1451 33 28 c17 15 71 61 120 102 l87 75 0 1348 0
1349 -120 0 -120 0 0 -1451z"/>
<path d="M8124 7957 c-35 -38 -78 -99 -98 -140 -69 -141 -66 -66 -66 -1454 0
-689 -3 -1253 -6 -1253 -4 0 -45 33 -92 73 -47 39 -109 91 -138 115 l-54 44 0
561 c0 352 -4 576 -10 599 -18 63 -71 130 -138 176 -35 23 -70 42 -78 42 -12
0 -14 -110 -14 -740 l0 -739 93 -79 c385 -331 616 -527 640 -544 l27 -19 1 43
c4 322 4 3288 0 3327 l-6 55 -61 -67z"/>
<path d="M9008 7925 c-9 -168 -6 -2226 2 -2223 5 2 60 45 124 97 l115 94 -3
861 c-2 651 -6 874 -15 916 -22 95 -84 210 -154 286 l-64 69 -5 -100z"/>
<path d="M9705 7161 c-62 -35 -120 -98 -149 -160 -21 -45 -21 -57 -24 -637
l-3 -591 -87 -74 c-48 -42 -240 -205 -427 -363 -187 -159 -384 -327 -437 -373
l-98 -85 0 -929 0 -929 120 0 120 0 0 879 0 879 358 303 c196 167 432 368 525
447 l167 143 0 760 c0 417 -3 759 -7 759 -5 0 -31 -13 -58 -29z"/>
<path d="M10050 6358 l-1 -823 -166 -140 c-92 -77 -188 -158 -213 -180 -26
-22 -184 -157 -352 -300 l-305 -260 -7 -95 c-3 -52 -5 -419 -3 -815 l2 -720
119 0 120 0 1 30 c1 17 2 359 3 760 l2 730 283 241 c155 133 383 326 507 429
124 104 231 199 238 212 10 18 12 176 10 771 l-3 747 -26 55 c-42 90 -108 151
-186 175 l-23 6 0 -823z"/>
<path d="M7100 6700 c-66 -35 -118 -89 -152 -158 l-33 -67 -3 -741 -2 -740 82
-70 c151 -127 692 -588 831 -707 l137 -118 0 -540 0 -540 118 3 117 3 2 571
c1 315 -1 583 -5 598 -5 17 -157 154 -487 437 -264 226 -497 427 -517 447
l-38 36 0 803 c0 442 -3 803 -7 803 -5 -1 -24 -9 -43 -20z"/>
</g>
</svg>
